<svg width="309" height="151" viewBox="0 0 309 151" fill="none" xmlns="http://www.w3.org/2000/svg">
<g filter="url(#filter0_d_239_1233)">
<path d="M35.176 35.628V30.98H42.708V35.628H35.176ZM26.3 35.628C26.384 34.592 26.412 33.556 26.412 32.632V30.98H33.104V35.628H26.3ZM33.104 24.54V29.02H26.412V24.54H33.104ZM42.708 29.02H35.176V24.54H42.708V29.02ZM44.752 22.552H24.368V32.632C24.368 36.524 24.088 41.452 21.008 44.924C21.456 45.176 22.296 45.876 22.604 46.296C24.732 43.916 25.684 40.724 26.104 37.616H33.104V45.876H35.176V37.616H42.708V43.3C42.708 43.832 42.512 44 41.952 44.028C41.448 44.028 39.544 44.056 37.584 43.972C37.864 44.532 38.2 45.428 38.284 45.988C40.916 46.016 42.54 45.988 43.492 45.652C44.388 45.288 44.752 44.672 44.752 43.328V22.552Z" fill="white"/>
<path d="M67.24 23C69.844 24.764 73.288 27.424 74.8 29.132L77.264 26.528C75.584 24.792 72.028 22.328 69.508 20.732L67.24 23ZM78.608 30.28C80.064 33.556 81.52 37.98 81.94 40.836L85.328 39.436C84.74 36.552 83.284 32.352 81.716 29.02L78.608 30.28ZM61.248 29.916C60.884 33.64 60.072 37.84 59.092 40.808L62.452 42.152C63.404 38.988 64.104 34.144 64.496 30.532L61.248 29.916ZM66.288 28.264V41.256C66.288 44.784 67.296 45.904 70.936 45.904H75.612C79.028 45.904 79.924 44.252 80.316 38.932C79.392 38.708 77.964 38.12 77.18 37.532C76.984 41.9 76.732 42.796 75.332 42.796H71.328C69.984 42.796 69.76 42.572 69.76 41.256V28.264H66.288ZM99.048 39.492C102.52 38.484 104.564 35.88 104.564 32.716C104.564 30.364 103.528 28.88 101.54 28.88C100.056 28.88 98.796 29.832 98.796 31.4C98.796 32.996 100.056 33.892 101.456 33.892C101.568 33.892 101.68 33.892 101.764 33.864C101.596 35.348 100.336 36.552 98.152 37.252L99.048 39.492Z" fill="white"/>
</g>
<g filter="url(#filter1_d_239_1233)">
<path d="M26.608 62.732C25.264 67.016 23.024 71.244 20.616 74.016C20.952 74.52 21.512 75.668 21.708 76.116C22.604 75.052 23.528 73.792 24.34 72.42V88.156H26.272V68.864C27.112 67.044 27.896 65.14 28.512 63.264L26.608 62.732ZM43.66 69.788C43.268 73.428 42.652 76.536 41.56 79.168C40.496 76.312 39.964 73.176 39.628 70.32C39.684 70.152 39.74 69.956 39.796 69.788H43.66ZM34.756 83.256H30.276V77.012H34.756V83.256ZM46.796 69.788V67.968H40.272C40.72 66.316 41.056 64.608 41.336 62.9L39.46 62.592C38.816 67.072 37.668 71.468 35.792 74.352C35.988 74.52 36.296 74.856 36.548 75.192H33.552V69.9H37.164V67.996H33.552V62.9H31.564V67.996H27.7V69.9H31.564V75.192H28.428V86.896H30.276V85.076H36.604V75.248C36.8 75.528 36.996 75.752 37.108 75.92C37.584 75.192 38.032 74.352 38.452 73.428C38.844 76.032 39.488 78.748 40.552 81.24C39.264 83.536 37.5 85.384 35.092 86.756C35.484 87.092 36.156 87.82 36.408 88.184C38.536 86.84 40.188 85.188 41.504 83.172C42.568 85.132 43.968 86.868 45.816 88.156C46.068 87.624 46.712 86.896 47.104 86.504C45.088 85.244 43.632 83.424 42.54 81.324C44.08 78.216 44.948 74.436 45.508 69.788H46.796ZM72.136 76.48V84.46H64.464V74.716H73.284V65.112H71.044V72.672H64.464V62.592H62.224V72.672H55.812V65.14H53.656V74.716H62.224V84.46H54.664V76.48H52.424V86.504H72.136V88.1H74.376V76.48H72.136Z" fill="white"/>
<path d="M94.456 71.048C94.372 73.232 94.036 75.78 93.056 78.3C92.356 77.684 91.628 77.068 90.928 76.48C91.292 74.884 91.628 73.064 91.964 71.216L94.456 71.048ZM99.048 70.74V67.744L97.592 67.828V66.232H94.484V67.996L92.468 68.108C92.776 66.176 93 64.272 93.168 62.48L89.864 62.34C89.752 64.216 89.528 66.232 89.248 68.248C88.408 68.276 87.596 68.304 86.868 68.332L87.176 71.496L88.744 71.384C88.352 73.68 87.876 75.808 87.428 77.488C88.688 78.608 90.172 79.952 91.6 81.268C90.508 83.032 88.968 84.684 86.868 86.168C87.624 86.7 88.716 87.792 89.22 88.492C91.292 86.98 92.804 85.328 93.98 83.564C95.128 84.712 96.136 85.804 96.836 86.7L99.02 83.928C98.208 82.948 96.976 81.8 95.632 80.54C97.088 77.208 97.48 73.736 97.564 70.852L99.048 70.74ZM113.076 73.792H107.476V71.692C109.464 69.844 111.312 67.492 112.628 65.448L110.388 63.824L109.604 63.992H99.216V67.016H107.42C106.44 68.472 105.208 70.04 104.004 71.104V73.792H98.124V76.956H104.004V84.768C104.004 85.188 103.864 85.3 103.388 85.3C102.94 85.3 101.316 85.3 99.916 85.272C100.392 86.14 100.868 87.512 101.036 88.436C103.22 88.464 104.816 88.38 105.936 87.904C107.112 87.372 107.476 86.532 107.476 84.824V76.956H113.076V73.792ZM122.596 67.912V78.188H120.244V67.912H122.596ZM125.592 81.436V64.72H117.192V83.676H120.244V81.436H125.592ZM142.364 76.284V73.12H135.728V69.648H141.468V66.484H135.728V62.508H132.368V66.484H127.244V69.648H132.368V73.12H126.348V76.284H131.472C129.904 79.532 127.272 82.528 124.248 84.096C124.976 84.74 126.012 85.944 126.516 86.728C128.784 85.3 130.772 83.116 132.368 80.54V88.38H135.728V80.736C137.044 83.144 138.584 85.3 140.236 86.784C140.824 85.888 141.944 84.656 142.7 84.012C140.292 82.304 138.024 79.336 136.568 76.284H142.364ZM165.968 73.596H158.828V72.056H165.968V73.596ZM165.968 77.208H158.828V75.696H165.968V77.208ZM165.968 80.876H158.828V79.336H165.968V80.876ZM155.692 69.704V83.228H169.244V69.704H163.112C163.364 69.256 163.588 68.808 163.84 68.332H171.4V65.616H166.92C167.452 64.86 168.012 64.048 168.6 63.18L165.38 62.284C164.988 63.264 164.26 64.608 163.616 65.616H159.416L160.396 65.168C160.032 64.412 159.248 63.236 158.604 62.368L155.972 63.404C156.42 64.076 156.924 64.888 157.288 65.616H153.564V68.332H160.256C160.144 68.808 160.032 69.256 159.948 69.704H155.692ZM152.948 66.484C152.108 65.364 150.568 63.628 149.224 62.284L146.76 63.824C148.048 65.196 149.644 67.128 150.428 68.304L152.948 66.484ZM152.36 75.472L151.828 75.556H149.784C151.296 73.652 153.06 71.104 154.124 69.564L152.08 68.64L151.744 68.78H146.06V71.44H149.672C148.636 72.924 147.488 74.464 146.956 74.968C146.424 75.528 145.976 75.752 145.528 75.864C145.808 76.452 146.396 77.88 146.564 78.552C146.816 78.328 147.628 78.132 148.3 78.132H150.652C149.728 81.94 147.936 84.684 145.36 86.224C145.976 86.644 147.068 87.82 147.488 88.464C148.832 87.54 150.064 86.308 151.072 84.684C153.2 87.428 156.42 87.96 161.46 87.96C164.736 87.96 168.292 87.904 171.176 87.708C171.316 86.812 171.764 85.3 172.24 84.628C169.076 84.936 164.512 85.104 161.516 85.104C157.12 85.076 154.068 84.74 152.332 82.136C153.06 80.4 153.62 78.384 153.956 76.06L152.36 75.472ZM185.848 81.492C189.32 80.484 191.364 77.88 191.364 74.716C191.364 72.364 190.328 70.88 188.34 70.88C186.856 70.88 185.596 71.832 185.596 73.4C185.596 74.996 186.856 75.892 188.256 75.892C188.368 75.892 188.48 75.892 188.564 75.864C188.396 77.348 187.136 78.552 184.952 79.252L185.848 81.492Z" fill="white"/>
</g>
<g filter="url(#filter2_d_239_1233)">
<path d="M44.472 107.728C43.716 109.604 42.316 112.32 41.224 113.916L42.708 114.728C43.828 113.16 45.2 110.724 46.348 108.68L44.472 107.728ZM34 113.86C33.524 112.264 32.348 109.828 31.088 108.036L29.548 108.848C30.752 110.696 31.928 113.16 32.292 114.784L34 113.86ZM29.268 116.408L26.72 117.332V112.124H29.464V110.192H26.72V104.592H24.76V110.192H21.26V112.124H24.76V118.032C23.276 118.536 21.96 119.012 20.896 119.376L21.456 121.364L24.76 120.132V127.72C24.76 128.14 24.62 128.224 24.284 128.224C23.976 128.252 22.856 128.252 21.652 128.224C21.932 128.812 22.184 129.652 22.268 130.156C24.032 130.184 25.096 130.1 25.74 129.764C26.44 129.428 26.72 128.868 26.72 127.72V119.404C27.672 119.012 28.652 118.648 29.632 118.256L29.268 116.408ZM34.14 117.024V117.864C32.012 119.32 29.856 120.776 28.428 121.644L29.548 123.38C30.892 122.4 32.488 121.252 34.028 120.048C33.664 123.604 32.32 126.488 28.092 128.588C28.54 128.896 29.212 129.624 29.52 130.1C35.288 127.104 36.1 122.596 36.1 117.052V104.788H34.14V117.024ZM41.756 127.944C41.056 127.944 40.916 127.748 40.916 126.6V118.592C42.652 120.132 44.5 122.064 45.536 123.296L46.908 121.812C45.76 120.468 43.408 118.256 41.448 116.688L40.916 117.192V104.788H38.928V126.572C38.928 129.148 39.488 129.82 41.504 129.82H44.416C46.292 129.82 46.796 128.532 46.992 124.808C46.404 124.668 45.676 124.332 45.2 123.94C45.116 127.104 44.976 127.944 44.304 127.944H41.756ZM53.208 119.572V117.528H56.736V119.572H53.208ZM53.208 114.14H56.736V116.156H53.208V114.14ZM62.28 114.14V116.156H58.612V114.14H62.28ZM62.28 119.572H58.612V117.528H62.28V119.572ZM69.644 111.06C69.7 109.1 69.7 107.028 69.7 104.928H67.74C67.74 107.056 67.74 109.1 67.684 111.06H64.352V113.02H67.628C67.376 118.256 66.62 122.764 64.212 126.068V125.956C62.336 126.18 60.432 126.376 58.612 126.544V124.332H64.1V122.736H58.612V121.028H64.044V112.712H58.612V110.948H64.548V109.324H58.612V107.28C60.656 107.056 62.56 106.804 64.072 106.468L63.036 104.872C60.152 105.516 55.112 106.02 50.968 106.244C51.192 106.664 51.388 107.336 51.472 107.784C53.124 107.728 54.944 107.616 56.736 107.476V109.324H50.688V110.948H56.736V112.712H51.5V121.028H56.736V122.736H51.444V124.332H56.736V126.74C54.44 126.964 52.34 127.16 50.66 127.3L50.968 129.12C54.104 128.784 58.444 128.308 62.672 127.804C62.308 128.14 61.916 128.476 61.468 128.784C61.972 129.12 62.7 129.82 63.008 130.268C67.936 126.572 69.224 120.468 69.56 113.02H73.564C73.284 123.184 72.948 126.88 72.304 127.692C72.024 128.056 71.772 128.14 71.296 128.14C70.764 128.14 69.532 128.112 68.188 128C68.496 128.532 68.72 129.4 68.776 129.96C70.064 130.044 71.38 130.072 72.164 129.96C73.004 129.876 73.564 129.652 74.04 128.924C74.992 127.748 75.244 123.856 75.552 112.124C75.552 111.844 75.58 111.06 75.58 111.06H69.644ZM99.716 127.076H85.94V121.084H99.716V127.076ZM105.316 114.756V112.824H93.752V108.176H103.104V106.272H82.58V108.176H91.652V112.824H80.368V114.756H91.652V119.18H83.896V130.1H85.94V128.952H99.716V130.1H101.844V119.18H93.752V114.756H105.316ZM134.324 114.504C133.232 112.376 130.628 109.24 128.276 107.028L126.568 107.924C128.892 110.22 131.412 113.44 132.448 115.54L134.324 114.504ZM123.152 104.592H120.996V115.12H123.152V104.592ZM115.508 107.084C114.332 109.884 112.288 112.656 110.216 114.448C110.692 114.756 111.504 115.428 111.868 115.764C113.94 113.776 116.124 110.696 117.468 107.616L115.508 107.084ZM134.548 120.748V118.844H122.956C123.124 117.92 123.264 116.94 123.376 115.96H121.164C121.052 116.968 120.94 117.948 120.744 118.844H109.824V120.748H120.268C119.064 124.332 116.432 126.992 109.656 128.336C110.048 128.756 110.58 129.624 110.748 130.128C117.692 128.616 120.716 125.732 122.172 121.812C124.272 126.404 127.94 129.008 133.736 130.128C134.016 129.568 134.548 128.7 134.968 128.28C129.284 127.384 125.588 124.948 123.712 120.748H134.548ZM151.768 126.74V115.652H162.184V113.58H151.768V105.012H149.584V126.74H139.14V128.812H164.088V126.74H151.768ZM177.304 116.772H171.424V110.92H177.304V116.772ZM171.424 125.34V118.62H177.304V125.34H171.424ZM173.776 104.508C173.58 105.824 173.076 107.7 172.656 109.044H169.52V129.428H171.424V127.216H179.208V109.044H174.56C175.036 107.84 175.54 106.3 176.016 104.928L173.776 104.508ZM192.9 108.96H184.528C185.004 107.644 185.396 106.3 185.732 104.928L183.744 104.452C182.848 108.288 181.336 112.152 179.46 114.616C179.908 114.896 180.804 115.456 181.168 115.792C182.148 114.476 183.016 112.768 183.8 110.892H190.912C190.548 122.036 190.128 126.292 189.204 127.272C188.924 127.636 188.616 127.692 188.056 127.692C187.412 127.692 185.732 127.692 183.912 127.524C184.304 128.112 184.556 128.952 184.612 129.568C186.18 129.652 187.776 129.708 188.756 129.596C189.708 129.512 190.352 129.26 190.968 128.476C192.088 127.104 192.452 122.792 192.9 110.024V108.96ZM188.476 121.56C187.58 119.908 185.648 117.22 184.08 115.232L182.456 116.184C183.996 118.2 185.872 120.972 186.712 122.652L188.476 121.56Z" fill="white"/>
<path d="M210.196 109.912V120.188H207.844V109.912H210.196ZM213.192 123.436V106.72H204.792V125.676H207.844V123.436H213.192ZM229.964 118.284V115.12H223.328V111.648H229.068V108.484H223.328V104.508H219.968V108.484H214.844V111.648H219.968V115.12H213.948V118.284H219.072C217.504 121.532 214.872 124.528 211.848 126.096C212.576 126.74 213.612 127.944 214.116 128.728C216.384 127.3 218.372 125.116 219.968 122.54V130.38H223.328V122.736C224.644 125.144 226.184 127.3 227.836 128.784C228.424 127.888 229.544 126.656 230.3 126.012C227.892 124.304 225.624 121.336 224.168 118.284H229.964ZM246.78 109.408H250.056V108.148H253.668V105.628H250.056V104.256H246.78V105.628H241.684V108.148H246.78V109.408ZM251.736 118.004L251.204 118.088L251.848 116.716C250.56 116.24 248.124 115.652 246.36 115.372L245.548 116.912C247.06 117.22 248.992 117.752 250.336 118.2C248.124 118.536 246.024 118.816 244.456 118.984L245.24 121.168C247.2 120.776 249.552 120.3 251.904 119.74L251.736 118.004ZM255.628 127.58V126.348H261.256V127.58H255.628ZM247.228 126.348H252.492V127.58H247.228V126.348ZM252.492 123.24V124.416H247.228V123.24H252.492ZM261.256 124.416H255.628V123.24H261.256V124.416ZM263.832 119.46C262.432 119.012 259.912 118.508 257.784 118.228C259.38 117.948 261.368 117.5 262.824 116.968L261.648 115.372C260.192 115.82 257.672 116.576 256.02 116.856L256.776 118.088L256.524 118.06L255.964 119.768C258.12 120.076 260.864 120.664 262.684 121.168H244.204V130.436H247.228V129.652H261.256V130.436H264.42V121.168H263.384L263.832 119.46ZM255.684 112.068H264.336V109.912H243.98V112.068H252.436V113.048H242.132V117.78H245.268V115.288H252.436V120.524H255.684V115.288H262.936V117.78H266.212V113.048H255.684V112.068ZM261.648 105.628V104.256H258.344V105.628H254.648V108.148H258.344V109.408H261.648V108.148H266.604V105.628H261.648ZM283.628 112.852C281.136 112.852 279.092 114.896 279.092 117.388C279.092 119.88 281.136 121.924 283.628 121.924C286.148 121.924 288.164 119.88 288.164 117.388C288.164 114.896 286.148 112.852 283.628 112.852ZM283.628 119.908C282.256 119.908 281.108 118.788 281.108 117.388C281.108 115.988 282.256 114.868 283.628 114.868C285.028 114.868 286.148 115.988 286.148 117.388C286.148 118.788 285.028 119.908 283.628 119.908Z" fill="white"/>
</g>
<defs>
<filter id="filter0_d_239_1233" x="0" y="-5" width="136" height="74" filterUnits="userSpaceOnUse" color-interpolation-filters="sRGB">
<feFlood flood-opacity="0" result="BackgroundImageFix"/>
<feColorMatrix in="SourceAlpha" type="matrix" values="0 0 0 0 0 0 0 0 0 0 0 0 0 0 0 0 0 0 127 0" result="hardAlpha"/>
<feOffset/>
<feGaussianBlur stdDeviation="10"/>
<feComposite in2="hardAlpha" operator="out"/>
<feColorMatrix type="matrix" values="0 0 0 0 0 0 0 0 0 0 0 0 0 0 0 0 0 0 1 0"/>
<feBlend mode="normal" in2="BackgroundImageFix" result="effect1_dropShadow_239_1233"/>
<feBlend mode="normal" in="SourceGraphic" in2="effect1_dropShadow_239_1233" result="shape"/>
</filter>
<filter id="filter1_d_239_1233" x="0" y="37" width="223" height="74" filterUnits="userSpaceOnUse" color-interpolation-filters="sRGB">
<feFlood flood-opacity="0" result="BackgroundImageFix"/>
<feColorMatrix in="SourceAlpha" type="matrix" values="0 0 0 0 0 0 0 0 0 0 0 0 0 0 0 0 0 0 127 0" result="hardAlpha"/>
<feOffset/>
<feGaussianBlur stdDeviation="10"/>
<feComposite in2="hardAlpha" operator="out"/>
<feColorMatrix type="matrix" values="0 0 0 0 0 0 0 0 0 0 0 0 0 0 0 0 0 0 1 0"/>
<feBlend mode="normal" in2="BackgroundImageFix" result="effect1_dropShadow_239_1233"/>
<feBlend mode="normal" in="SourceGraphic" in2="effect1_dropShadow_239_1233" result="shape"/>
</filter>
<filter id="filter2_d_239_1233" x="0" y="79" width="318" height="74" filterUnits="userSpaceOnUse" color-interpolation-filters="sRGB">
<feFlood flood-opacity="0" result="BackgroundImageFix"/>
<feColorMatrix in="SourceAlpha" type="matrix" values="0 0 0 0 0 0 0 0 0 0 0 0 0 0 0 0 0 0 127 0" result="hardAlpha"/>
<feOffset/>
<feGaussianBlur stdDeviation="10"/>
<feComposite in2="hardAlpha" operator="out"/>
<feColorMatrix type="matrix" values="0 0 0 0 0 0 0 0 0 0 0 0 0 0 0 0 0 0 1 0"/>
<feBlend mode="normal" in2="BackgroundImageFix" result="effect1_dropShadow_239_1233"/>
<feBlend mode="normal" in="SourceGraphic" in2="effect1_dropShadow_239_1233" result="shape"/>
</filter>
</defs>
</svg>
