<svg width="493" height="217" viewBox="0 0 493 217" fill="none" xmlns="http://www.w3.org/2000/svg">
<g filter="url(#filter0_d_14_106)">
<path d="M44.248 46.224V36.96H58.792V46.224H44.248ZM28.84 46.224C28.984 44.4 29.032 42.576 29.032 40.896V36.96H41.944V46.224H28.84ZM41.944 25.728V34.752H29.032V25.728H41.944ZM58.792 34.752H44.248V25.728H58.792V34.752ZM61.096 23.52H26.728V40.896C26.728 47.664 26.2 56.16 20.872 62.16C21.4 62.448 22.312 63.264 22.648 63.792C26.392 59.52 27.976 53.856 28.648 48.432H41.944V63.12H44.248V48.432H58.792V59.76C58.792 60.72 58.456 61.008 57.544 61.008C56.584 61.056 53.272 61.104 49.528 61.008C49.864 61.632 50.296 62.64 50.344 63.264C55.048 63.312 57.688 63.312 59.128 62.88C60.52 62.448 61.096 61.68 61.096 59.76V23.52Z" fill="white"/>
<path d="M93.84 24C98.304 27.024 104.208 31.584 106.8 34.512L111.024 30.048C108.144 27.072 102.048 22.848 97.728 20.112L93.84 24ZM113.328 36.48C115.824 42.096 118.32 49.68 119.04 54.576L124.848 52.176C123.84 47.232 121.344 40.032 118.656 34.32L113.328 36.48ZM83.568 35.856C82.944 42.24 81.552 49.44 79.872 54.528L85.632 56.832C87.264 51.408 88.464 43.104 89.136 36.912L83.568 35.856ZM92.208 33.024V55.296C92.208 61.344 93.936 63.264 100.176 63.264H108.192C114.048 63.264 115.584 60.432 116.256 51.312C114.672 50.928 112.224 49.92 110.88 48.912C110.544 56.4 110.112 57.936 107.712 57.936H100.848C98.544 57.936 98.16 57.552 98.16 55.296V33.024H92.208ZM148.368 52.272C154.32 50.544 157.824 46.08 157.824 40.656C157.824 36.624 156.048 34.08 152.64 34.08C150.096 34.08 147.936 35.712 147.936 38.4C147.936 41.136 150.096 42.672 152.496 42.672C152.688 42.672 152.88 42.672 153.024 42.624C152.736 45.168 150.576 47.232 146.832 48.432L148.368 52.272Z" fill="white"/>
</g>
<g filter="url(#filter1_d_14_106)">
<path d="M30.856 86.352C28.408 93.936 24.472 101.472 20.104 106.416C20.536 106.896 21.208 108.048 21.496 108.528C23.416 106.272 25.288 103.536 26.968 100.56V129.552H29.176V96.384C30.616 93.36 31.96 90.144 33.016 86.928L30.856 86.352ZM45.016 109.872V122.112H35.608V109.872H45.016ZM47.176 124.224V107.76H41.464V97.872H48.424V95.712H41.464V86.544H39.256V95.712H31.912V97.872H39.256V107.76H33.496V127.248H35.608V124.224H47.176ZM52.216 97.68H60.376C59.56 104.784 58.216 110.784 55.912 115.68C53.608 110.16 52.6 103.968 52.024 98.304L52.216 97.68ZM64.744 97.68V95.568H52.792C53.512 92.64 54.184 89.568 54.712 86.352L52.6 86.016C51.4 93.744 49.384 101.328 46.168 106.368C46.696 106.656 47.608 107.472 47.944 107.856C48.904 106.272 49.816 104.352 50.632 102.288C51.304 107.472 52.504 113.04 54.712 118.032C52.312 122.208 49.048 125.472 44.584 128.016C45.064 128.4 45.88 129.312 46.168 129.696C50.296 127.152 53.368 124.08 55.768 120.288C57.736 123.936 60.376 127.2 63.928 129.648C64.264 129.024 64.984 128.208 65.464 127.776C61.72 125.424 59.032 122.016 57.064 118.128C59.896 112.704 61.528 105.984 62.536 97.68H64.744ZM109.48 109.872V124.32H94.6V106.512H110.008V90.576H107.608V104.256H94.6V86.112H92.2V104.256H79.336V90.576H76.984V106.512H92.2V124.32H77.512V109.824H75.016V126.576H109.48V129.408H111.928V109.872H109.48Z" fill="white"/>
<path d="M140.496 100.368C140.352 104.112 139.776 108.48 138.096 112.8C136.896 111.744 135.648 110.688 134.448 109.68C135.072 106.944 135.648 103.824 136.224 100.656L140.496 100.368ZM148.368 99.84V94.704L145.872 94.848V92.112H140.544V95.136L137.088 95.328C137.616 92.016 138 88.752 138.288 85.68L132.624 85.44C132.432 88.656 132.048 92.112 131.568 95.568C130.128 95.616 128.736 95.664 127.488 95.712L128.016 101.136L130.704 100.944C130.032 104.88 129.216 108.528 128.448 111.408C130.608 113.328 133.152 115.632 135.6 117.888C133.728 120.912 131.088 123.744 127.488 126.288C128.784 127.2 130.656 129.072 131.52 130.272C135.072 127.68 137.664 124.848 139.68 121.824C141.648 123.792 143.376 125.664 144.576 127.2L148.32 122.448C146.928 120.768 144.816 118.8 142.512 116.64C145.008 110.928 145.68 104.976 145.824 100.032L148.368 99.84ZM172.416 105.072H162.816V101.472C166.224 98.304 169.392 94.272 171.648 90.768L167.808 87.984L166.464 88.272H148.656V93.456H162.72C161.04 95.952 158.928 98.64 156.864 100.464V105.072H146.784V110.496H156.864V123.888C156.864 124.608 156.624 124.8 155.808 124.8C155.04 124.8 152.256 124.8 149.856 124.752C150.672 126.24 151.488 128.592 151.776 130.176C155.52 130.224 158.256 130.08 160.176 129.264C162.192 128.352 162.816 126.912 162.816 123.984V110.496H172.416V105.072ZM188.736 94.992V112.608H184.704V94.992H188.736ZM193.872 118.176V89.52H179.472V122.016H184.704V118.176H193.872ZM222.624 109.344V103.92H211.248V97.968H221.088V92.544H211.248V85.728H205.488V92.544H196.704V97.968H205.488V103.92H195.168V109.344H203.952C201.264 114.912 196.752 120.048 191.568 122.736C192.816 123.84 194.592 125.904 195.456 127.248C199.344 124.8 202.752 121.056 205.488 116.64V130.08H211.248V116.976C213.504 121.104 216.144 124.8 218.976 127.344C219.984 125.808 221.904 123.696 223.2 122.592C219.072 119.664 215.184 114.576 212.688 109.344H222.624ZM263.088 104.736H250.848V102.096H263.088V104.736ZM263.088 110.928H250.848V108.336H263.088V110.928ZM263.088 117.216H250.848V114.576H263.088V117.216ZM245.472 98.064V121.248H268.704V98.064H258.192C258.624 97.296 259.008 96.528 259.44 95.712H272.4V91.056H264.72C265.632 89.76 266.592 88.368 267.6 86.88L262.08 85.344C261.408 87.024 260.16 89.328 259.056 91.056H251.856L253.536 90.288C252.912 88.992 251.568 86.976 250.464 85.488L245.952 87.264C246.72 88.416 247.584 89.808 248.208 91.056H241.824V95.712H253.296C253.104 96.528 252.912 97.296 252.768 98.064H245.472ZM240.768 92.544C239.328 90.624 236.688 87.648 234.384 85.344L230.16 87.984C232.368 90.336 235.104 93.648 236.448 95.664L240.768 92.544ZM239.76 107.952L238.848 108.096H235.344C237.936 104.832 240.96 100.464 242.784 97.824L239.28 96.24L238.704 96.48H228.96V101.04H235.152C233.376 103.584 231.408 106.224 230.496 107.088C229.584 108.048 228.816 108.432 228.048 108.624C228.528 109.632 229.536 112.08 229.824 113.232C230.256 112.848 231.648 112.512 232.8 112.512H236.832C235.248 119.04 232.176 123.744 227.76 126.384C228.816 127.104 230.688 129.12 231.408 130.224C233.712 128.64 235.824 126.528 237.552 123.744C241.2 128.448 246.72 129.36 255.36 129.36C260.976 129.36 267.072 129.264 272.016 128.928C272.256 127.392 273.024 124.8 273.84 123.648C268.416 124.176 260.592 124.464 255.456 124.464C247.92 124.416 242.688 123.84 239.712 119.376C240.96 116.4 241.92 112.944 242.496 108.96L239.76 107.952ZM297.168 118.272C303.12 116.544 306.624 112.08 306.624 106.656C306.624 102.624 304.848 100.08 301.44 100.08C298.896 100.08 296.736 101.712 296.736 104.4C296.736 107.136 298.896 108.672 301.296 108.672C301.488 108.672 301.68 108.672 301.824 108.624C301.536 111.168 299.376 113.232 295.632 114.432L297.168 118.272Z" fill="white"/>
</g>
<g filter="url(#filter2_d_14_106)">
<path d="M61.672 157.44C60.328 160.704 57.688 165.36 55.672 168.048L57.352 169.056C59.368 166.32 61.96 162 63.88 158.496L61.672 157.44ZM42.568 168.24C41.848 165.408 39.832 161.04 37.48 157.872L35.704 158.784C37.912 162 39.928 166.32 40.552 169.248L42.568 168.24ZM35.176 175.2L34.84 172.992L29.992 174.816V164.208H35.176V162.048H29.992V152.064H27.832V162.048H21.256V164.208H27.832V175.584C25.096 176.592 22.552 177.552 20.632 178.176L21.352 180.432L27.832 177.984V192.48C27.832 193.2 27.544 193.392 26.92 193.392C26.392 193.44 24.424 193.44 22.12 193.392C22.456 194.016 22.792 194.976 22.888 195.552C25.912 195.552 27.592 195.504 28.6 195.12C29.56 194.688 29.992 194.064 29.992 192.48V177.216L35.176 175.2ZM43.912 173.424V175.008C40.12 177.6 36.184 180.24 33.544 181.872L34.936 183.84C37.528 182.016 40.696 179.664 43.768 177.408C43.288 184.416 41.128 189.744 32.92 193.728C33.448 194.112 34.12 194.928 34.456 195.456C44.68 190.368 46.072 183.024 46.072 173.472V152.256H43.912V173.424ZM56.008 192.768C54.568 192.768 54.28 192.432 54.28 190.608V175.152C57.544 177.888 61.288 181.584 63.208 183.792L64.792 182.064C62.728 179.712 58.504 175.872 55 172.992L54.28 173.712V152.256H52.072V190.56C52.072 194.064 52.936 194.88 55.816 194.88H61.384C64.264 194.88 64.792 192.816 65.08 186.576C64.36 186.384 63.592 186 62.968 185.472C62.824 191.232 62.584 192.768 61.336 192.768H56.008ZM75.256 178.08V173.76H82.6V178.08H75.256ZM75.256 167.76H82.6V171.936H75.256V167.76ZM92.488 167.76V171.936H84.808V167.76H92.488ZM92.488 178.08H84.808V173.76H92.488V178.08ZM114.088 163.44H103.624C103.72 159.888 103.768 156.24 103.768 152.496H101.56C101.56 156.24 101.56 159.888 101.416 163.44H94.984V165.6H101.368C100.888 175.056 99.496 183.456 94.888 189.504V188.976C91.528 189.36 88.072 189.792 84.808 190.128V185.424H94.6V183.456H84.808V179.904H94.552V165.888H84.808V162.192H95.56V160.224H84.808V156C88.504 155.568 91.96 155.088 94.552 154.464L93.208 152.688C88.408 153.792 79.48 154.608 72.424 155.04C72.664 155.52 72.952 156.336 73.048 156.864C76.024 156.72 79.384 156.528 82.6 156.192V160.224H71.704V162.192H82.6V165.888H73.192V179.904H82.6V183.456H73.096V185.424H82.6V190.368C78.52 190.848 74.728 191.232 71.8 191.52L72.184 193.68C77.848 193.008 85.864 192.048 93.592 191.088C92.584 192.192 91.384 193.2 90.088 194.112C90.712 194.448 91.576 195.168 91.96 195.648C100.792 189.312 102.952 178.368 103.528 165.6H111.784C111.208 184.32 110.632 190.944 109.384 192.48C108.952 193.008 108.52 193.104 107.656 193.104C106.744 193.104 104.44 193.104 101.944 192.912C102.28 193.536 102.568 194.496 102.616 195.12C104.824 195.264 107.128 195.312 108.376 195.216C109.768 195.12 110.632 194.832 111.352 193.776C112.936 191.808 113.464 185.28 114.088 164.784V163.44ZM156.712 191.184H131.128V179.424H156.712V191.184ZM165.112 168.672V166.512H144.808V157.344H161.368V155.184H126.52V157.344H142.504V166.512H122.632V168.672H142.504V177.264H128.872V195.456H131.128V193.344H156.712V195.456H159.064V177.264H144.808V168.672H165.112ZM214.456 169.344C212.536 165.696 208.072 160.32 203.896 156.432L202.024 157.488C206.104 161.472 210.568 166.944 212.44 170.592L214.456 169.344ZM195.304 152.064H192.952V170.064H195.304V152.064ZM183.784 156.528C181.624 161.424 178.024 166.272 174.376 169.488C174.904 169.92 175.768 170.688 176.152 171.072C179.848 167.616 183.592 162.384 185.992 157.104L183.784 156.528ZM215.416 178.992V176.832H194.872C195.256 175.2 195.544 173.424 195.784 171.6H193.336C193.096 173.424 192.808 175.2 192.424 176.832H172.984V178.992H191.896C189.736 185.808 184.984 190.992 172.888 193.488C173.368 193.968 173.896 194.88 174.136 195.456C186.376 192.72 191.56 187.296 194.008 180.048C197.656 188.352 204.616 193.296 214.696 195.504C215.032 194.784 215.56 193.92 216.088 193.44C206.104 191.616 199.192 186.864 195.928 178.992H215.416ZM244.168 190.944V170.448H262.648V168.192H244.168V152.832H241.768V190.944H223.336V193.248H265.912V190.944H244.168ZM289.24 173.28H277.768V161.808H289.24V173.28ZM277.768 188.256V175.392H289.24V188.256H277.768ZM283.24 151.872C282.76 154.128 281.752 157.44 280.936 159.696H275.608V194.352H277.768V190.416H291.448V159.696H283.096C283.912 157.632 284.872 154.848 285.688 152.448L283.24 151.872ZM315.016 159.696H300.088C300.952 157.296 301.672 154.752 302.248 152.208L299.992 151.68C298.504 158.496 296.008 165.168 292.648 169.536C293.224 169.872 294.232 170.448 294.616 170.784C296.344 168.336 297.928 165.264 299.32 161.856H312.76C312.04 182.352 311.224 189.792 309.64 191.52C309.16 192.144 308.584 192.24 307.624 192.24C306.568 192.24 303.736 192.192 300.568 191.952C301 192.576 301.24 193.488 301.336 194.208C303.976 194.4 306.76 194.448 308.248 194.352C309.736 194.256 310.696 193.92 311.608 192.864C313.528 190.608 314.2 183.312 315.016 161.04V159.696ZM307.576 181.2C306.04 178.32 302.584 173.664 299.752 170.208L297.88 171.264C300.76 174.72 304.12 179.52 305.656 182.448L307.576 181.2Z" fill="white"/>
<path d="M339.336 160.992V178.608H335.304V160.992H339.336ZM344.472 184.176V155.52H330.072V188.016H335.304V184.176H344.472ZM373.224 175.344V169.92H361.848V163.968H371.688V158.544H361.848V151.728H356.088V158.544H347.304V163.968H356.088V169.92H345.768V175.344H354.552C351.864 180.912 347.352 186.048 342.168 188.736C343.416 189.84 345.192 191.904 346.056 193.248C349.944 190.8 353.352 187.056 356.088 182.64V196.08H361.848V182.976C364.104 187.104 366.744 190.8 369.576 193.344C370.584 191.808 372.504 189.696 373.8 188.592C369.672 185.664 365.784 180.576 363.288 175.344H373.224ZM402.051 160.128H407.667V157.968H413.859V153.648H407.667V151.296H402.051V153.648H393.315V157.968H402.051V160.128ZM410.547 174.864L409.635 175.008L410.739 172.656C408.531 171.84 404.355 170.832 401.331 170.352L399.939 172.992C402.531 173.52 405.843 174.432 408.147 175.2C404.355 175.776 400.755 176.256 398.067 176.544L399.411 180.288C402.771 179.616 406.803 178.8 410.835 177.84L410.547 174.864ZM417.219 191.28V189.168H426.867V191.28H417.219ZM402.819 189.168H411.843V191.28H402.819V189.168ZM411.843 183.84V185.856H402.819V183.84H411.843ZM426.867 185.856H417.219V183.84H426.867V185.856ZM431.283 177.36C428.883 176.592 424.563 175.728 420.915 175.248C423.651 174.768 427.059 174 429.555 173.088L427.539 170.352C425.043 171.12 420.723 172.416 417.891 172.896L419.187 175.008L418.755 174.96L417.795 177.888C421.491 178.416 426.195 179.424 429.315 180.288H397.635V196.176H402.819V194.832H426.867V196.176H432.291V180.288H430.515L431.283 177.36ZM417.315 164.688H432.147V160.992H397.251V164.688H411.747V166.368H394.083V174.48H399.459V170.208H411.747V179.184H417.315V170.208H429.747V174.48H435.363V166.368H417.315V164.688ZM427.539 153.648V151.296H421.875V153.648H415.539V157.968H421.875V160.128H427.539V157.968H436.035V153.648H427.539ZM465.219 166.032C460.947 166.032 457.443 169.536 457.443 173.808C457.443 178.08 460.947 181.584 465.219 181.584C469.539 181.584 472.995 178.08 472.995 173.808C472.995 169.536 469.539 166.032 465.219 166.032ZM465.219 178.128C462.867 178.128 460.899 176.208 460.899 173.808C460.899 171.408 462.867 169.488 465.219 169.488C467.619 169.488 469.539 171.408 469.539 173.808C469.539 176.208 467.619 178.128 465.219 178.128Z" fill="white"/>
</g>
<defs>
<filter id="filter0_d_14_106" x="-1" y="-10" width="198" height="98" filterUnits="userSpaceOnUse" color-interpolation-filters="sRGB">
<feFlood flood-opacity="0" result="BackgroundImageFix"/>
<feColorMatrix in="SourceAlpha" type="matrix" values="0 0 0 0 0 0 0 0 0 0 0 0 0 0 0 0 0 0 127 0" result="hardAlpha"/>
<feOffset/>
<feGaussianBlur stdDeviation="10"/>
<feComposite in2="hardAlpha" operator="out"/>
<feColorMatrix type="matrix" values="0 0 0 0 0 0 0 0 0 0 0 0 0 0 0 0 0 0 1 0"/>
<feBlend mode="normal" in2="BackgroundImageFix" result="effect1_dropShadow_14_106"/>
<feBlend mode="normal" in="SourceGraphic" in2="effect1_dropShadow_14_106" result="shape"/>
</filter>
<filter id="filter1_d_14_106" x="-1" y="56" width="347" height="98" filterUnits="userSpaceOnUse" color-interpolation-filters="sRGB">
<feFlood flood-opacity="0" result="BackgroundImageFix"/>
<feColorMatrix in="SourceAlpha" type="matrix" values="0 0 0 0 0 0 0 0 0 0 0 0 0 0 0 0 0 0 127 0" result="hardAlpha"/>
<feOffset/>
<feGaussianBlur stdDeviation="10"/>
<feComposite in2="hardAlpha" operator="out"/>
<feColorMatrix type="matrix" values="0 0 0 0 0 0 0 0 0 0 0 0 0 0 0 0 0 0 1 0"/>
<feBlend mode="normal" in2="BackgroundImageFix" result="effect1_dropShadow_14_106"/>
<feBlend mode="normal" in="SourceGraphic" in2="effect1_dropShadow_14_106" result="shape"/>
</filter>
<filter id="filter2_d_14_106" x="-1" y="122" width="511" height="98" filterUnits="userSpaceOnUse" color-interpolation-filters="sRGB">
<feFlood flood-opacity="0" result="BackgroundImageFix"/>
<feColorMatrix in="SourceAlpha" type="matrix" values="0 0 0 0 0 0 0 0 0 0 0 0 0 0 0 0 0 0 127 0" result="hardAlpha"/>
<feOffset/>
<feGaussianBlur stdDeviation="10"/>
<feComposite in2="hardAlpha" operator="out"/>
<feColorMatrix type="matrix" values="0 0 0 0 0 0 0 0 0 0 0 0 0 0 0 0 0 0 1 0"/>
<feBlend mode="normal" in2="BackgroundImageFix" result="effect1_dropShadow_14_106"/>
<feBlend mode="normal" in="SourceGraphic" in2="effect1_dropShadow_14_106" result="shape"/>
</filter>
</defs>
</svg>
