<svg width="145" height="36" viewBox="0 0 145 36" fill="none" xmlns="http://www.w3.org/2000/svg">
<path d="M37.6218 14.2579C37.1542 14.5778 36.7112 14.7378 36.2928 14.7378C35.8744 14.7378 35.4437 14.7009 35.0007 14.6271C34.6808 14.5778 34.3362 14.5409 33.967 14.5163C33.6225 14.4917 33.2533 14.5409 32.8595 14.664C32.7611 15.5746 32.6257 16.4483 32.4534 17.2851C32.2812 18.1219 32.035 18.8848 31.7151 19.574C31.8628 19.7462 32.035 19.8693 32.2319 19.9431C32.4534 19.9923 32.6626 20.0785 32.8595 20.2015C32.638 20.6446 32.2935 20.9153 31.8258 21.0137C31.3582 21.0876 30.866 21.1245 30.3492 21.1245C30.2753 21.1245 30.2015 21.1245 30.1277 21.1245C30.0538 21.1245 29.98 21.1245 29.9062 21.1245C29.217 21.1491 28.4418 21.186 27.5804 21.2352C26.7436 21.2598 25.8945 21.2598 25.0331 21.2352C24.8854 21.8751 24.787 22.6258 24.7377 23.4872C24.7131 24.3486 24.6516 25.1854 24.5532 25.9975C24.4547 26.8097 24.2332 27.4742 23.8887 27.9911C23.8887 28.0649 23.9502 28.1018 24.0732 28.1018C24.1471 28.1018 24.1963 28.1018 24.2209 28.1018C23.9748 28.3972 23.8148 28.7786 23.741 29.2463C23.6918 29.6893 23.5933 30.1692 23.4456 30.686C23.3472 30.6368 23.3349 30.5384 23.4087 30.3907C23.4333 30.3169 23.4456 30.243 23.4456 30.1692C23.4703 30.0954 23.4703 30.0092 23.4456 29.9108C23.2488 30.083 23.1503 30.3169 23.1503 30.6122C23.1749 30.8829 23.0765 31.0921 22.855 31.2398C22.8304 31.5597 22.6212 31.9166 22.2274 32.3104C21.8336 32.7288 21.5998 33.1841 21.526 33.6763C21.0337 33.6025 20.7753 33.7255 20.7507 34.0455C20.7015 33.8732 20.6276 33.7871 20.5292 33.7871C20.4554 33.8117 20.3569 33.8609 20.2339 33.9347C20.1354 34.0086 20.0123 34.0824 19.8647 34.1562C19.7416 34.2301 19.5816 34.2424 19.3848 34.1932C19.877 33.381 20.2708 32.4211 20.5661 31.3136C20.8861 30.2307 21.1691 29.0863 21.4152 27.8803C21.6613 26.6498 21.8951 25.4807 22.1166 24.3732C22.0182 24.3732 21.969 24.4716 21.969 24.6685C21.9936 24.89 21.9197 24.9639 21.7475 24.89C21.7967 24.8654 21.8213 24.8162 21.8213 24.7424C21.8459 24.6439 21.8582 24.5455 21.8582 24.447C21.8828 24.324 21.9074 24.2255 21.932 24.1517C21.9567 24.0779 22.0182 24.1025 22.1166 24.2255C21.9936 23.881 21.932 23.561 21.932 23.2657C21.9567 22.9457 21.9936 22.6381 22.0428 22.3427C22.0674 22.1951 22.0797 22.0597 22.0797 21.9367C22.1043 21.789 22.1166 21.6413 22.1166 21.4937C21.1568 21.4444 20.1969 21.506 19.2371 21.6782C18.2772 21.8259 17.4035 22.0228 16.616 22.2689C16.2222 22.1459 15.7792 22.0105 15.2869 21.8628C14.8193 21.7152 14.3886 21.506 13.9948 21.2352C13.9456 21.0137 13.8841 20.8168 13.8103 20.6446C13.7364 20.4723 13.5765 20.3738 13.3303 20.3492C13.6011 20.1769 13.7857 19.9554 13.8841 19.6847C15.0162 19.6601 16.3206 19.6109 17.7973 19.537C19.2986 19.4386 20.7507 19.3648 22.1535 19.3155C22.252 18.8971 22.3012 18.4172 22.3012 17.8758C22.3012 17.3097 22.2766 16.7682 22.2274 16.2514C22.2028 15.71 22.1658 15.267 22.1166 14.9224C21.3044 15.0208 20.4677 15.0947 19.6063 15.1439C18.7695 15.1931 17.9942 15.2916 17.2805 15.4392C16.5667 15.5869 15.9761 15.8822 15.5085 16.3252C15.2377 16.2022 14.967 16.2022 14.6963 16.3252C14.4748 15.9807 14.1794 15.71 13.8103 15.5131C13.4411 15.3162 13.0965 15.0947 12.7766 14.8486C12.4812 14.6024 12.2844 14.2333 12.1859 13.741C12.5551 13.4703 12.9489 13.3226 13.3673 13.298C13.7857 13.2488 14.2164 13.2242 14.6594 13.2242C14.8316 13.2242 14.9916 13.2242 15.1393 13.2242C15.2869 13.2242 15.4469 13.2242 15.6192 13.2242C16.7021 13.175 17.7604 13.0642 18.7941 12.8919C19.8278 12.7197 20.8984 12.6212 22.0059 12.5966C22.0059 11.9075 21.9443 11.3906 21.8213 11.0461C21.7228 10.7015 21.5998 10.3816 21.4521 10.0862C21.3291 9.76629 21.206 9.3479 21.0829 8.83106C20.6646 8.63416 20.2708 8.62186 19.9016 8.79414C19.5324 8.96642 19.1509 9.18792 18.7572 9.45865C18.3634 9.72938 17.945 9.96318 17.502 10.1601C17.059 10.357 16.5791 10.3077 16.0622 10.0124C16.0622 9.98779 15.9392 9.86474 15.693 9.64323C15.4715 9.39712 15.2377 9.1387 14.9916 8.86798C14.7701 8.59725 14.6347 8.41266 14.5855 8.31422C14.4625 8.04349 14.4132 7.71124 14.4379 7.31745C14.4625 6.92367 14.3517 6.61602 14.1056 6.39452C14.1302 6.36991 14.1917 6.33299 14.2902 6.28377C14.4379 6.23455 14.4994 6.1361 14.4748 5.98843C15.9268 6.30838 17.3297 6.44375 18.6833 6.39452C20.0616 6.32069 21.4152 6.22224 22.7442 6.09919C23.3103 6.04996 23.864 6.00074 24.4055 5.95152C24.9716 5.90229 25.5376 5.86538 26.1037 5.84077C26.2514 5.84077 26.399 5.84077 26.5467 5.84077C26.719 5.84077 26.8912 5.85307 27.0635 5.87768C27.6296 5.90229 28.1957 5.90229 28.7617 5.87768C29.3278 5.82846 29.7831 5.63157 30.1277 5.28701C30.1523 5.18856 30.1523 5.11473 30.1277 5.0655C30.103 5.01628 30.0907 4.96706 30.0907 4.91784C30.0415 4.844 30.0538 4.75786 30.1277 4.65942C30.9891 4.93014 31.8628 5.28701 32.7488 5.73001C33.6594 6.17302 34.4593 6.86214 35.1484 7.79738C35.0992 7.89582 34.9884 7.98196 34.8161 8.0558C34.9884 8.12963 35.0992 8.26499 35.1484 8.46188C35.1976 8.63416 35.2222 8.79414 35.2222 8.94181C35.2222 9.08948 35.2345 9.18792 35.2591 9.23715C34.9392 9.48326 34.6192 9.60632 34.2993 9.60632C33.9794 9.58171 33.6102 9.66785 33.1918 9.86474C33.2656 10.1355 33.2902 10.3693 33.2656 10.5662C33.241 10.7631 33.2164 10.9599 33.1918 11.1568C33.1426 11.3045 33.1056 11.4645 33.081 11.6368C33.0564 11.7844 33.0564 11.969 33.081 12.1905C33.9917 12.2397 34.8284 12.3751 35.5914 12.5966C36.379 12.8181 37.0558 13.3719 37.6218 14.2579ZM14.807 3.66265C14.8809 4.05644 14.7332 4.59789 14.364 5.28701C14.0195 5.95152 13.6503 6.59142 13.2565 7.2067C13.0596 7.52665 12.8873 7.82199 12.7397 8.09271C12.592 8.33883 12.4812 8.54802 12.4074 8.72031C12.3336 8.89259 12.2474 9.21253 12.149 9.68015C12.0752 10.1232 11.9767 10.4431 11.8537 10.64C11.5829 10.7877 11.386 11.0092 11.263 11.3045C11.1645 11.5752 11.0661 11.8583 10.9676 12.1536C10.8938 12.4489 10.7338 12.7197 10.4877 12.9658C10.7338 13.7287 10.8692 14.5778 10.8938 15.5131C10.9184 16.4483 10.9061 17.4205 10.8569 18.4295C10.8323 18.9218 10.8077 19.414 10.7831 19.9062C10.7831 20.3984 10.7954 20.8907 10.82 21.3829C10.8692 22.2935 10.8938 23.2164 10.8938 24.1517C10.9184 25.0869 10.9307 25.9729 10.9307 26.8097C10.9307 26.982 10.9307 27.1543 10.9307 27.3266C10.9307 27.4988 10.9307 27.6834 10.9307 27.8803C10.9307 28.7417 10.9184 29.5908 10.8938 30.4276C10.8938 31.2398 10.8323 31.9781 10.7092 32.6426C10.0693 32.938 9.55248 32.8641 9.1587 32.4211C8.78953 32.0027 8.44496 31.5228 8.12502 30.9814C8.02657 30.8091 7.91582 30.6368 7.79276 30.4645C7.69432 30.2922 7.59587 30.1446 7.49742 30.0215C7.57126 29.9969 7.60817 29.8985 7.60817 29.7262C7.60817 29.7016 7.60817 29.677 7.60817 29.6523C7.6574 29.7016 7.70662 29.7631 7.75584 29.8369C7.80507 29.8862 7.84198 29.9477 7.8666 30.0215C7.84198 29.8492 7.84198 29.5908 7.8666 29.2463C7.91582 28.9017 7.97735 28.5448 8.05118 28.1757C8.14963 27.8065 8.27268 27.5235 8.42035 27.3266C8.34652 27.4004 8.23577 27.4373 8.0881 27.4373C8.0881 26.9943 8.11271 26.5144 8.16193 25.9975C8.21116 25.4561 8.26038 24.9146 8.3096 24.3732C8.38344 23.6348 8.44496 22.9211 8.49419 22.232C8.54341 21.5183 8.5188 20.9276 8.42035 20.46C8.54341 20.2385 8.59263 19.9924 8.56802 19.7216C8.56802 19.4509 8.54341 19.1556 8.49419 18.8356C8.46958 18.5157 8.43266 18.1711 8.38344 17.8019C8.35882 17.4081 8.37113 16.9651 8.42035 16.4729C7.82968 17.2605 7.27592 18.1096 6.75908 19.0202C6.24224 19.9308 5.66387 20.7676 5.02397 21.5306C4.40869 22.2935 3.59651 22.8473 2.58744 23.1918C2.56283 23.118 2.58744 23.0319 2.66127 22.9334C2.68588 22.8842 2.69819 22.835 2.69819 22.7858C2.45208 22.9334 2.23057 22.9703 2.03368 22.8965C1.8614 22.8227 1.68912 22.7119 1.51684 22.5642C1.44301 22.515 1.35687 22.4658 1.25842 22.4166C1.18459 22.3427 1.09845 22.2935 1 22.2689C1.41839 21.8505 1.94754 21.2845 2.58744 20.5707C3.25195 19.857 3.74418 19.0448 4.06413 18.1342C4.11335 18.3557 4.19949 18.4172 4.32255 18.3188C4.47021 18.1957 4.59327 18.0604 4.69172 17.9127C4.79016 17.7404 4.77786 17.6912 4.6548 17.765C4.82708 17.3712 5.0855 16.8913 5.43006 16.3252C5.79923 15.7346 6.14379 15.2177 6.46374 14.7747C6.31607 14.6763 6.27916 14.5901 6.35299 14.5163C6.45144 14.4179 6.57449 14.3071 6.72216 14.184C6.82061 14.1102 6.89444 14.0487 6.94367 13.9995C6.91905 13.9256 6.89444 13.901 6.86983 13.9256C6.84522 13.9256 6.83291 13.9502 6.83291 13.9995C6.73447 13.8764 6.70986 13.8026 6.75908 13.778C6.8083 13.7287 6.88214 13.7041 6.98058 13.7041C7.07903 13.6795 7.14056 13.6549 7.16517 13.6303C7.14056 13.458 7.14056 13.335 7.16517 13.2611C7.18978 13.1627 7.2267 13.0765 7.27592 13.0027C7.34975 12.855 7.38667 12.7197 7.38667 12.5966C7.60818 12.5228 7.71893 12.4612 7.71893 12.412C7.74354 12.3382 7.8666 12.2644 8.0881 12.1905C8.38344 11.2553 8.7403 10.357 9.1587 9.49557C9.57709 8.60955 9.97087 7.73585 10.34 6.87445C10.7338 6.01304 11.0046 5.11473 11.1522 4.17949C10.8569 3.85954 10.5615 3.5519 10.2662 3.25656C9.97087 2.96123 9.70015 2.61666 9.45403 2.22288C9.47865 2.0506 9.57709 1.97677 9.74937 2.00138C9.94626 2.02599 10.1432 2.07521 10.34 2.14905C10.5123 2.19827 10.6354 2.22288 10.7092 2.22288C11.103 2.07521 11.6075 2.02599 12.2228 2.07521C12.8381 2.12444 13.3919 2.28441 13.8841 2.55514C14.4009 2.80125 14.7086 3.17042 14.807 3.66265ZM30.0538 8.0558C29.9554 8.0558 29.8569 8.0558 29.7585 8.0558C29.6846 8.03119 29.5862 8.01888 29.4631 8.01888C28.8725 7.99427 28.1957 7.98196 27.4327 7.98196C26.6944 7.95735 25.9437 7.98196 25.1808 8.0558C24.4178 8.10502 23.741 8.24038 23.1503 8.46188C23.6425 8.60955 24.0855 8.88028 24.4793 9.27406C24.8977 9.66785 25.1808 10.1355 25.3284 10.6769C25.4761 11.1938 25.3899 11.7475 25.07 12.3382C25.9314 12.3874 26.6821 12.412 27.322 12.412C27.9618 12.3874 28.7986 12.3997 29.8323 12.4489C29.8569 12.252 29.8692 12.0552 29.8692 11.8583C29.8938 11.6368 29.9308 11.4276 29.98 11.2307C30.0292 10.64 30.0784 10.0616 30.1277 9.49557C30.1769 8.90489 30.1523 8.42497 30.0538 8.0558ZM29.7216 14.4055C29.4262 14.4302 29.1309 14.4548 28.8356 14.4794C28.5648 14.4794 28.2818 14.4794 27.9865 14.4794C27.4696 14.4794 26.9528 14.4917 26.4359 14.5163C25.9437 14.5409 25.4884 14.6271 25.07 14.7747C25.0454 15.4392 25.0331 16.2145 25.0331 17.1005C25.0331 17.9865 25.0331 18.6756 25.0331 19.1679C25.7468 19.1186 26.4113 19.0571 27.0266 18.9833C27.6419 18.8848 28.2695 18.7741 28.9094 18.651C29.1801 18.085 29.3647 17.4328 29.4631 16.6944C29.5862 15.9561 29.6723 15.1931 29.7216 14.4055Z" fill="#181818"/>
<path d="M73.8007 19.537C73.3331 19.6601 72.8039 19.7462 72.2132 19.7955C71.6472 19.8201 71.0811 19.8816 70.515 19.98C69.9736 20.0539 69.4937 20.2262 69.0753 20.4969C68.5338 20.8414 68.0785 21.2721 67.7093 21.789C67.3402 22.3058 66.9464 22.8104 66.528 23.3026C66.1342 23.7702 65.5928 24.1394 64.9036 24.4101C64.2391 25.05 63.5746 25.7022 62.9101 26.3667C62.2702 27.0312 61.5688 27.6465 60.8058 28.2126C60.0429 28.7786 59.1446 29.2463 58.1109 29.6154C58.0124 29.6893 57.9878 29.7877 58.037 29.9108C58.1109 30.0338 58.0863 30.1446 57.9632 30.243C56.8803 30.9075 55.7359 31.5474 54.5299 32.1627C53.3239 32.8026 52.0195 33.2948 50.6167 33.6394C49.2138 33.984 47.6633 34.0701 45.9651 33.8978C45.8175 33.8732 45.6575 33.8609 45.4852 33.8609C45.3375 33.8609 45.1776 33.8609 45.0053 33.8609C44.7099 33.8609 44.4146 33.8486 44.1193 33.824C43.8485 33.824 43.5655 33.7994 43.2702 33.7502C43.3932 33.7748 43.3563 33.7379 43.1594 33.6394C42.9871 33.5656 42.7902 33.4794 42.5687 33.381C42.4211 33.3318 42.2734 33.2702 42.1257 33.1964C41.9781 33.1472 41.8673 33.0979 41.7935 33.0487C41.9412 32.9011 42.1011 32.8272 42.2734 32.8272C42.4457 32.8272 42.6057 32.8395 42.7533 32.8641C43.0487 32.9134 43.2209 32.8888 43.2702 32.7903C44.3777 32.8395 45.4237 32.6919 46.4081 32.3473C47.4172 32.0027 48.4017 31.6213 49.3615 31.2029C50.0752 30.9075 50.7767 30.6245 51.4658 30.3538C52.1795 30.083 52.9056 29.8862 53.6439 29.7631C53.6193 29.5662 53.4593 29.4924 53.164 29.5416C52.8932 29.5908 52.7579 29.6154 52.7579 29.6154C53.5454 29.0986 54.4438 28.5817 55.4528 28.0649C56.4619 27.5235 57.3971 26.8713 58.2585 26.1083C57.3479 25.5915 56.5111 25.0008 55.7482 24.3363C54.9852 23.6472 54.2838 22.9334 53.6439 22.1951C53.4224 22.2935 53.1886 22.4043 52.9425 22.5273C52.721 22.6504 52.4995 22.7734 52.278 22.8965C51.4904 23.3149 50.6536 23.6964 49.7676 24.0409C48.9062 24.3855 47.8848 24.5086 46.7035 24.4101C46.5804 23.9917 46.3343 23.721 45.9651 23.5979C45.596 23.4503 45.2514 23.3887 44.9314 23.4133C44.6115 23.4133 44.4515 23.4133 44.4515 23.4133C44.8945 23.1672 45.4237 22.9457 46.039 22.7488C46.6789 22.5519 47.3188 22.3427 47.9586 22.1212C48.5985 21.8751 49.1646 21.6167 49.6568 21.346C49.7799 21.2229 49.8537 21.2229 49.8783 21.346C49.9276 21.4444 49.9522 21.4937 49.9522 21.4937C50.0014 21.2721 50.186 21.0383 50.5059 20.7922C50.8505 20.5461 51.2566 20.4107 51.7242 20.3861C51.675 20.2877 51.7488 20.1769 51.9457 20.0539C51.9703 20.0293 51.9949 20.017 52.0195 20.017C52.7087 19.6232 53.4962 19.1433 54.3822 18.5772C55.2929 17.9865 56.0927 17.4943 56.7819 17.1005C56.8065 17.0267 56.7819 16.9405 56.708 16.8421C56.6588 16.7683 56.6342 16.6944 56.6342 16.6206C56.7326 16.5467 56.8065 16.5098 56.8557 16.5098C56.9295 16.5098 56.9911 16.5221 57.0403 16.5467C57.1633 16.596 57.2741 16.6206 57.3725 16.6206C57.4218 16.4237 57.4094 16.2637 57.3356 16.1407C57.2618 16.0176 57.1756 15.9192 57.0772 15.8453C57.0034 15.7469 56.9295 15.6484 56.8557 15.55C56.7819 15.4515 56.7572 15.3162 56.7819 15.1439C56.9049 15.1685 56.9787 15.1685 57.0034 15.1439C57.0526 15.1193 57.1018 15.0824 57.151 15.0331C57.2003 14.9593 57.2741 14.9224 57.3725 14.9224C57.5694 15.0454 57.7294 15.107 57.8525 15.107C57.9755 15.107 58.1109 15.0824 58.2585 15.0331C58.357 15.0085 58.48 14.9839 58.6277 14.9593C58.7754 14.9347 58.9477 14.9224 59.1446 14.9224C59.686 15.0947 60.2028 15.3039 60.6951 15.55C61.1873 15.7715 61.5565 16.0914 61.8026 16.5098C62.9101 16.5344 63.9438 16.4729 64.9036 16.3252C65.8635 16.1776 66.5649 15.9438 67.0079 15.6238C67.1064 15.6484 67.1925 15.673 67.2663 15.6977C67.3648 15.6977 67.4509 15.71 67.5248 15.7346C67.6724 15.7838 67.8201 15.8207 67.9678 15.8453C68.1154 15.8699 68.2877 15.8822 68.4846 15.8822C69.0753 16.276 69.7275 16.6452 70.4412 16.9898C71.1549 17.3097 71.8195 17.6666 72.4347 18.0604C73.05 18.4541 73.5053 18.9464 73.8007 19.537ZM68.4846 6.65294C68.14 6.87445 67.7463 7.02212 67.3033 7.09595C66.8849 7.16978 66.4665 7.24362 66.0481 7.31745C65.6297 7.36668 65.2482 7.50204 64.9036 7.72354C64.2883 8.11732 63.7715 8.64647 63.3531 9.31098C62.9593 9.95088 62.4917 10.5169 61.9503 11.0092C61.9257 11.0338 61.8518 11.0338 61.7288 11.0092C61.6057 10.9846 61.5319 10.9846 61.5073 11.0092C61.3104 11.1814 61.1258 11.403 60.9535 11.6737C60.7812 11.9198 60.572 12.1413 60.3259 12.3382C60.0798 12.5351 59.7968 12.7074 59.4768 12.855C59.1569 12.9781 58.8984 13.1381 58.7015 13.335C57.6925 14.2456 56.548 15.1685 55.2682 16.1037C53.9885 17.0144 52.5118 17.7158 50.8382 18.208L51.0597 17.9496C50.6659 18.048 50.1368 18.1465 49.4723 18.2449C48.8077 18.3188 48.1309 18.3434 47.4418 18.3188C46.7527 18.2695 46.162 18.1096 45.6698 17.8388C45.276 17.9127 44.9437 17.9373 44.673 17.9127C44.4269 17.8635 44.3039 17.8388 44.3039 17.8388C46.3466 17.2482 48.1555 16.596 49.7307 15.8822C51.3304 15.1439 52.7333 14.1717 53.9392 12.9658C53.2993 12.5228 52.7456 12.0059 52.278 11.4153C51.835 10.8 51.355 10.2216 50.8382 9.68015C50.469 9.7786 50.1368 9.91396 49.8414 10.0862C49.5707 10.2585 49.3 10.4308 49.0292 10.6031C48.5616 10.8984 48.0448 11.1691 47.4787 11.4153C46.9373 11.6614 46.1743 11.7352 45.1899 11.6368C45.0914 11.5875 44.993 11.5383 44.8945 11.4891C44.8207 11.4153 44.7592 11.3414 44.7099 11.2676C44.5869 11.1199 44.4392 10.9969 44.2669 10.8984C44.1193 10.8 43.8855 10.7631 43.5655 10.7877L46.002 9.45865C47.3064 8.74492 48.5862 8.01888 49.8414 7.28053C51.0966 6.54219 52.2657 5.75462 53.3486 4.91784C53.0286 4.64711 52.6717 4.42561 52.278 4.25333C51.8842 4.05644 51.6011 3.7611 51.4289 3.36731C52.1426 3.02275 52.9179 2.85047 53.7547 2.85047C54.6161 2.82586 55.4282 2.94892 56.1912 3.21965C56.9787 3.49037 57.6186 3.89646 58.1109 4.43791C58.2585 4.4133 58.4185 4.401 58.5908 4.401C58.7631 4.37638 58.9354 4.36408 59.1076 4.36408C59.6983 4.33947 60.2398 4.29024 60.732 4.21641C61.2242 4.14257 61.4334 3.93338 61.3596 3.58882C62.2456 3.46576 63.1316 3.53959 64.0176 3.81032C64.9282 4.08105 65.765 4.47483 66.528 4.99167C67.3156 5.4839 67.9678 6.03766 68.4846 6.65294ZM65.199 18.5772C64.879 18.5526 64.5345 18.5772 64.1653 18.651C63.7961 18.7002 63.427 18.7618 63.0578 18.8356C62.8609 18.8848 62.6763 18.9341 62.504 18.9833C62.3317 19.0079 62.1595 19.0325 61.9872 19.0571C61.6672 19.0817 61.4088 19.0571 61.2119 18.9833C61.015 18.8848 60.9166 18.6633 60.9166 18.3188C60.5474 18.2942 60.2644 18.3188 60.0675 18.3926C59.8706 18.4664 59.6983 18.5649 59.5506 18.6879C59.4768 18.7126 59.403 18.7495 59.3291 18.7987C59.2799 18.8479 59.2184 18.8848 59.1446 18.9094C58.8 19.2048 58.3939 19.4632 57.9263 19.6847C57.4587 19.9062 56.9911 20.1277 56.5234 20.3492C56.0804 20.5707 55.7113 20.8661 55.4159 21.2352C56.3758 21.629 57.2372 22.1089 58.0001 22.675C58.7877 23.2411 59.4153 23.9425 59.8829 24.7793C60.9166 23.844 61.8887 22.8842 62.7994 21.8997C63.71 20.8907 64.5099 19.7832 65.199 18.5772ZM60.3259 6.50527C60.0306 6.5545 59.7106 6.5668 59.3661 6.54219C59.0461 6.51758 58.7139 6.49297 58.3693 6.46836C58.074 6.41913 57.7786 6.39452 57.4833 6.39452C57.1879 6.36991 56.9049 6.36991 56.6342 6.39452C56.0927 6.44375 55.5513 6.62833 55.0098 6.94828C54.493 7.26823 54.0008 7.61279 53.5331 7.98196C53.0901 8.35113 52.6841 8.63416 52.3149 8.83106C53.2501 9.02795 54.0008 9.38481 54.5668 9.90166C55.1329 10.4185 55.7236 10.9107 56.3389 11.3783C56.6342 11.0092 56.9049 10.6277 57.151 10.2339C57.4218 9.81552 57.8401 9.54479 58.4062 9.42173C58.4062 9.15101 58.4924 8.9172 58.6646 8.72031C58.8369 8.4988 59.0461 8.2773 59.2922 8.0558C59.5137 7.83429 59.7229 7.60048 59.9198 7.35437C60.1413 7.10825 60.2767 6.82522 60.3259 6.50527Z" fill="#181818"/>
<path d="M105.365 34.3039C104.38 34.5254 103.507 34.5008 102.744 34.2301C102.005 33.984 101.329 33.6148 100.713 33.1226C100.147 32.6303 99.6058 32.0889 99.0889 31.4982C98.5721 30.9075 98.043 30.3415 97.5015 29.8C96.9601 29.2586 96.3694 28.8279 95.7295 28.5079C95.4341 28.4833 95.1511 28.4833 94.8804 28.5079C94.6343 28.5325 94.3882 28.5694 94.142 28.6187C93.9205 28.6433 93.699 28.6679 93.4775 28.6925C93.256 28.7171 93.0099 28.7294 92.7392 28.7294C92.69 28.8771 92.6654 29.0125 92.6654 29.1355C92.69 29.2586 92.7146 29.3939 92.7392 29.5416C92.7638 29.6893 92.7761 29.8 92.7761 29.8738C92.087 30.563 91.3609 31.1536 90.598 31.6459C89.835 32.1381 89.0229 32.6426 88.1615 33.1595C88.1861 33.2579 88.1615 33.3441 88.0876 33.4179C88.0384 33.4917 87.9769 33.5287 87.903 33.5287C87.8538 33.5287 87.78 33.504 87.6815 33.4548C87.5585 33.381 87.46 33.3687 87.3862 33.4179C87.337 33.4671 87.3247 33.5533 87.3493 33.6763C87.3739 33.7994 87.3493 33.8855 87.2754 33.9347C86.9555 34.107 86.6232 34.2055 86.2787 34.2301C85.9587 34.2547 85.688 34.3408 85.4665 34.4885C85.2204 34.267 84.8881 34.1193 84.4697 34.0455C84.076 33.9717 83.8668 33.7871 83.8421 33.4917C83.916 33.4425 84.0637 33.3441 84.2852 33.1964C84.6297 32.9257 85.0358 32.6303 85.5034 32.3104C85.9957 32.015 86.4387 31.8797 86.8324 31.9043C87.0047 31.5351 87.2385 31.2398 87.5339 31.0183C87.8538 30.7722 88.1738 30.5384 88.4937 30.3169C88.8137 30.0707 89.0721 29.7754 89.269 29.4308C88.7767 29.3816 88.223 29.3078 87.6077 29.2093C87.017 29.1109 86.4756 28.9386 85.9833 28.6925C85.4911 28.4464 85.1342 28.0895 84.9127 27.6219C85.1342 27.6219 85.3434 27.6096 85.5403 27.585C85.7618 27.5358 85.9833 27.4865 86.2048 27.4373C86.4756 27.3635 86.7586 27.302 87.0539 27.2527C87.3493 27.2035 87.6692 27.1789 88.0138 27.1789C88.0384 27.0312 87.9277 26.8097 87.6815 26.5144C87.46 26.1944 87.2631 25.9483 87.0909 25.776C87.4846 25.2592 87.7061 24.6562 87.7554 23.9671C87.8046 23.2534 87.8046 22.4658 87.7554 21.6044C87.7554 21.3583 87.7431 21.1122 87.7185 20.8661C87.7185 20.5953 87.7185 20.3246 87.7185 20.0539C87.5708 19.8324 87.3862 19.6601 87.1647 19.537C86.9432 19.3894 86.734 19.2294 86.5371 19.0571C86.4633 18.6387 86.5494 18.3311 86.7955 18.1342C87.0416 17.9127 87.3616 17.765 87.7554 17.6912C88.1491 17.5927 88.5429 17.5435 88.9367 17.5435C89.3551 17.5435 89.6751 17.5558 89.8966 17.5804C90.2165 17.605 90.5611 17.5927 90.9302 17.5435C91.2994 17.4697 91.6809 17.4081 92.0747 17.3589C92.3208 17.3097 92.5792 17.2605 92.8499 17.2113C93.1207 17.162 93.3914 17.1251 93.6621 17.1005C93.859 17.0759 94.0559 17.0636 94.2528 17.0636C94.4743 17.0636 94.6835 17.0636 94.8804 17.0636C95.1019 17.0636 95.3234 17.0636 95.5449 17.0636C95.791 17.0636 96.0248 17.0513 96.2463 17.0267C96.5663 16.9774 96.8493 16.8913 97.0954 16.7683C97.3661 16.6206 97.6 16.5344 97.7968 16.5098C98.6582 16.4114 99.4458 16.5714 100.16 16.9898C100.898 17.3835 101.538 17.7773 102.079 18.1711C102.227 18.2696 102.362 18.368 102.485 18.4664C102.608 18.5403 102.719 18.6141 102.818 18.6879C102.719 18.9833 102.535 19.2048 102.264 19.3525C102.018 19.5001 101.722 19.6232 101.378 19.7216C101.304 20.1892 101.279 20.7307 101.304 21.346C101.329 21.9613 101.366 22.6012 101.415 23.2657C101.439 23.6102 101.464 23.9671 101.489 24.3363C101.513 24.7054 101.525 25.0623 101.525 25.4069C101.55 26.219 101.513 26.9451 101.415 27.585C101.316 28.2249 101.07 28.6679 100.676 28.914C100.603 28.914 100.516 28.9017 100.418 28.8771C100.344 28.8525 100.27 28.8279 100.196 28.8033C99.9996 28.754 99.8027 28.7171 99.6058 28.6925C99.4335 28.6433 99.3104 28.6433 99.2366 28.6925C99.655 29.0617 100.098 29.3447 100.566 29.5416C101.058 29.7385 101.55 29.9354 102.042 30.1323C102.535 30.3292 102.965 30.6245 103.334 31.0183C103.753 31.4613 104.134 31.9535 104.479 32.495C104.848 33.061 105.143 33.664 105.365 34.3039ZM111.899 12.7443C111.358 13.5072 110.742 14.184 110.053 14.7747C109.364 15.3408 108.404 15.673 107.174 15.7715C106.682 15.4515 106.14 15.1439 105.549 14.8486C104.983 14.5532 104.639 14.2456 104.516 13.9256C104.688 13.3842 104.959 12.9412 105.328 12.5966C105.697 12.252 106.066 11.8829 106.435 11.4891C106.805 11.0953 107.051 10.5662 107.174 9.90166C106.903 9.31098 106.411 8.9295 105.697 8.75722C104.983 8.58494 104.282 8.4865 103.593 8.46188C102.461 8.38805 101.193 8.36344 99.7904 8.38805C98.4121 8.38805 97.0216 8.42497 95.6187 8.4988C94.2159 8.57264 92.8869 8.69569 91.6317 8.86798C90.4011 9.04025 89.1828 9.24945 87.9769 9.49557C86.7709 9.71707 85.6142 9.90166 84.5067 10.0493C84.359 10.0985 84.2852 10.2708 84.2852 10.5662L83.9898 10.3077C83.6206 11.0215 83.3376 11.8829 83.1407 12.8919C82.9684 13.8764 82.7962 14.8732 82.6239 15.8822C82.4516 16.8913 82.1932 17.8142 81.8486 18.651C81.1595 18.6264 80.5319 18.4541 79.9658 18.1342C79.4244 17.8142 79.006 17.4081 78.7107 16.9159C78.4153 16.4237 78.3046 15.9192 78.3784 15.4023C79.2644 15.0578 79.8797 14.4671 80.2243 13.6303C80.5934 12.7689 80.9011 11.8583 81.1472 10.8984C81.0487 10.7015 80.8765 10.5785 80.6303 10.5292C80.3842 10.4554 80.1381 10.3939 79.892 10.3447C79.6459 10.2954 79.449 10.197 79.3013 10.0493C79.5721 9.85243 79.7566 9.65554 79.8551 9.45865C79.9535 9.23715 80.052 9.01564 80.1504 8.79414C80.2489 8.57264 80.4335 8.38805 80.7042 8.24038C81.221 8.2896 81.6886 8.2773 82.107 8.20346C82.5254 8.12963 82.9315 8.0558 83.3253 7.98196C83.7683 7.88352 84.2236 7.79738 84.6912 7.72354C85.1835 7.64971 85.7618 7.64971 86.4263 7.72354C86.3525 7.55126 86.2295 7.37898 86.0572 7.2067C85.9095 7.00981 85.7495 6.81292 85.5773 6.61602C85.1589 6.14841 84.7651 5.64387 84.3959 5.10242C84.0513 4.56097 83.9529 4.00721 84.1006 3.44115C84.8143 3.68726 85.4911 3.95799 86.131 4.25333C86.7709 4.54866 87.3247 4.93014 87.7923 5.39776C88.2599 5.86538 88.5798 6.49297 88.7521 7.28053C89.1705 7.32976 89.5766 7.34206 89.9704 7.31745C90.3642 7.26823 90.7457 7.21901 91.1148 7.16979C91.5086 7.12056 91.8901 7.08364 92.2593 7.05903C92.653 7.00981 93.0468 7.00981 93.4406 7.05903C93.5883 6.41913 93.5637 5.86538 93.3668 5.39776C93.1699 4.93014 92.9238 4.53636 92.6284 4.21641C92.2593 3.79801 91.8778 3.41654 91.484 3.07198C91.1148 2.72742 90.9056 2.29672 90.8564 1.77988C91.8409 1.13998 92.8253 0.893863 93.8098 1.04153C94.8189 1.16459 95.6064 1.71835 96.1725 2.70281C96.3448 2.99814 96.394 3.36731 96.3202 3.81032C96.2709 4.25333 96.1848 4.72094 96.0617 5.21317C95.9879 5.4839 95.9264 5.76693 95.8772 6.06227C95.8279 6.33299 95.791 6.60372 95.7664 6.87445C96.3817 7.04673 96.8985 7.08364 97.3169 6.9852C97.7353 6.88675 98.1045 6.71447 98.4244 6.46836C98.8428 6.1238 99.212 5.71771 99.532 5.25009C99.8765 4.78247 100.246 4.38869 100.639 4.06874C100.467 3.7734 100.27 3.51498 100.049 3.29348C99.8519 3.04737 99.6919 2.76433 99.5689 2.44438C100.086 2.24749 100.639 2.17366 101.23 2.22288C101.845 2.2721 102.411 2.41977 102.928 2.66589C103.445 2.88739 103.839 3.19503 104.11 3.58882C104.38 3.95799 104.442 4.38869 104.294 4.88092C103.777 4.93014 103.371 5.07781 103.076 5.32393C102.781 5.57004 102.498 5.82846 102.227 6.09919C101.981 6.36991 101.649 6.57911 101.23 6.72678C101.501 6.87445 101.796 6.94828 102.116 6.94828C102.436 6.94828 102.768 6.93597 103.113 6.91136C103.359 6.88675 103.605 6.87445 103.851 6.87445C104.122 6.84983 104.38 6.86214 104.627 6.91136C104.799 6.66525 105.07 6.52989 105.439 6.50527C105.832 6.45605 106.202 6.49297 106.546 6.61602C106.915 6.71447 107.137 6.88675 107.211 7.13287C107.728 7.10825 108.244 7.24362 108.761 7.53896C109.303 7.80968 109.623 8.24038 109.721 8.83106C110.263 9.37251 110.755 9.97549 111.198 10.64C111.665 11.3045 111.899 12.0059 111.899 12.7443ZM102.891 11.9321C102.621 12.129 102.387 12.2644 102.19 12.3382C102.018 12.3874 101.784 12.5105 101.489 12.7074C101.07 12.9535 100.713 13.3965 100.418 14.0364C100.123 14.6517 99.7658 15.2916 99.3474 15.9561C99.2981 16.0053 99.1874 16.0299 99.0151 16.0299C98.8428 16.0053 98.6952 15.9068 98.5721 15.7346C98.4737 15.8084 98.3875 15.8822 98.3137 15.9561C98.2645 16.0299 98.1783 16.0791 98.0553 16.1037C96.554 16.1037 95.1511 16.1407 93.8467 16.2145C92.5423 16.2637 91.3486 16.4606 90.2657 16.8052C89.7243 16.7313 89.2197 16.5837 88.7521 16.3622C88.3091 16.116 87.8907 15.8084 87.4969 15.4392C87.6938 14.6763 87.62 13.9133 87.2754 13.1504C86.9555 12.3628 86.5617 11.7352 86.0941 11.2676C86.7586 10.8 87.5339 10.5046 88.4199 10.3816C89.3305 10.2339 90.2534 10.1478 91.1887 10.1232C91.3856 10.1232 91.5825 10.1232 91.7793 10.1232C91.9762 10.1232 92.1608 10.1232 92.3331 10.1232C93.1699 10.0985 93.9821 10.0739 94.7696 10.0493C95.5818 10.0247 96.3202 9.92627 96.9847 9.75399C97.2308 9.70476 97.4523 9.60632 97.6492 9.45865C97.8461 9.31098 98.0553 9.23715 98.2768 9.23715C98.4737 9.23715 98.6705 9.27406 98.8674 9.3479C99.0643 9.39712 99.2489 9.47095 99.4212 9.5694C99.6427 9.64323 99.8519 9.71707 100.049 9.7909C100.246 9.86474 100.443 9.87704 100.639 9.82782C100.959 10.2216 101.329 10.5785 101.747 10.8984C102.19 11.1938 102.571 11.5383 102.891 11.9321ZM98.166 26.6621C98.166 26.5636 98.166 26.4652 98.166 26.3667C98.166 26.2683 98.1783 26.1698 98.2029 26.0714C98.2275 25.2838 98.2398 24.4347 98.2398 23.5241C98.2398 22.6135 98.2029 21.7275 98.1291 20.8661C98.0799 20.0047 97.9445 19.2663 97.723 18.651C97.3538 18.7002 96.9477 18.7372 96.5047 18.7618C96.0863 18.7618 95.6433 18.7618 95.1757 18.7618C94.3635 18.7618 93.5637 18.7864 92.7761 18.8356C91.9885 18.8848 91.3486 19.0325 90.8564 19.2786C90.5611 19.4263 90.3765 19.6355 90.3027 19.9062C90.2288 20.1523 90.2042 20.4723 90.2288 20.8661C91.2625 20.8168 92.1854 20.7553 92.9976 20.6815C93.8098 20.6076 94.5727 20.46 95.2865 20.2385C95.6064 20.5338 95.9756 20.7799 96.394 20.9768C96.837 21.1491 97.1693 21.4444 97.3908 21.8628C96.111 22.1335 94.905 22.3304 93.7729 22.4535C92.6407 22.5519 91.4348 22.6258 90.155 22.675C90.1796 22.8473 90.1796 23.0073 90.155 23.1549C90.155 23.278 90.1427 23.401 90.1181 23.5241C90.0688 23.6964 90.0442 23.8317 90.0442 23.9302C90.5857 24.0286 91.1271 24.0532 91.6686 24.004C92.2346 23.9302 92.7884 23.844 93.3299 23.7456C93.576 23.721 93.8221 23.6964 94.0682 23.6718C94.3389 23.6225 94.585 23.5856 94.8065 23.561C95.4464 23.5118 96.0002 23.5733 96.4678 23.7456C96.9354 23.9179 97.2677 24.3486 97.4646 25.0377C96.677 25.1361 95.8156 25.2469 94.8804 25.37C93.9451 25.493 93.0468 25.6038 92.1854 25.7022C91.324 25.776 90.5734 25.8253 89.9335 25.8499C89.9581 25.9237 89.9581 26.0468 89.9335 26.219C89.9089 26.3421 89.8966 26.4775 89.8966 26.6251C89.8966 26.7482 89.9212 26.8713 89.9704 26.9943C90.5365 27.0189 91.1517 27.0066 91.8163 26.9574C92.4808 26.9082 93.1576 26.8589 93.8467 26.8097C94.6343 26.7359 95.3972 26.6744 96.1356 26.6251C96.8985 26.5759 97.5753 26.5882 98.166 26.6621ZM97.5753 11.526C96.4186 11.5506 95.2003 11.6368 93.9205 11.7844C92.6407 11.9075 91.3486 12.0552 90.0442 12.2274C90.1181 12.5474 90.1796 12.9289 90.2288 13.3719C90.3027 13.7903 90.3888 14.2456 90.4872 14.7378C91.3979 14.7132 92.1608 14.6886 92.7761 14.664C93.3914 14.6394 93.9944 14.6024 94.585 14.5532C95.2003 14.504 95.9141 14.4425 96.7262 14.3686C96.997 14.0241 97.1939 13.6057 97.3169 13.1135C97.4646 12.5966 97.5507 12.0675 97.5753 11.526ZM98.9782 28.5817C98.9044 28.5079 98.8182 28.4218 98.7198 28.3233C98.6459 28.2249 98.5598 28.1387 98.4613 28.0649C98.4121 28.0649 98.3137 28.0649 98.166 28.0649C98.0183 28.0649 97.8707 28.0772 97.723 28.1018C97.6 28.1264 97.5384 28.2126 97.5384 28.3602C97.6369 28.3602 97.7353 28.3849 97.8338 28.4341C97.9568 28.4587 98.0676 28.4956 98.166 28.5448C98.2891 28.6187 98.4244 28.6802 98.5721 28.7294C98.7198 28.754 98.8551 28.7048 98.9782 28.5817Z" fill="#181818"/>
<circle cx="122.904" cy="6.82827" r="4.61465" fill="#C0362D"/>
<path d="M125.448 20.4167C125.031 19.8864 124.174 19.053 123.547 18.4621L123.003 18.8258C123.264 19.0909 123.57 19.4015 123.86 19.7045L120.782 19.8182C121.363 19.3864 121.974 18.8485 122.534 18.2576L121.766 18C121.147 18.7348 120.312 19.4091 120.036 19.5833C119.783 19.7727 119.589 19.8864 119.41 19.9167C119.485 20.1061 119.589 20.4621 119.626 20.6061C119.939 20.4924 120.394 20.4773 124.397 20.2955C124.584 20.4924 124.74 20.6894 124.859 20.8409L125.448 20.4167ZM125.687 21.7576H124.039V20.7121H123.331V21.7576H121.438V21.7197V20.7121H120.744V21.697V21.7576H119.037V22.4242H120.685C120.558 23.1288 120.178 23.8561 119 24.4167C119.157 24.5303 119.41 24.7879 119.507 24.9394C120.879 24.2652 121.281 23.3258 121.4 22.4242H123.331V24.9621H124.039V22.4242H125.687V21.7576Z" fill="#181818"/>
<path d="M129.474 22.7424V23.2576H127.871V22.7424H129.474ZM131.83 23.2576H130.152V22.7424H131.83V23.2576ZM130.152 24.2727V23.75H131.83V24.2727H130.152ZM127.871 24.2727V23.75H129.474V24.2727H127.871ZM127.208 25H127.871V24.803H131.83V24.9848H132.53V22.2197H127.208V25ZM131.092 21.3182H128.542V20.7197H131.092V21.3182ZM127.894 20.197V21.8409H131.785V20.197H127.894ZM131.807 19.1288C131.994 18.8939 132.217 18.6061 132.419 18.3182L131.688 18.0909C131.554 18.3864 131.293 18.803 131.092 19.0682L131.256 19.1288H130.137V18.0303H129.444V19.1288H128.281L128.512 19.0227C128.393 18.7652 128.14 18.3939 127.886 18.1136L127.282 18.3636C127.454 18.5909 127.655 18.8864 127.774 19.1288H126.693V20.7424H127.349V19.7273H132.314V20.7424H133V19.1288H131.807Z" fill="#181818"/>
<path d="M119 33.8978H120.932C122.211 33.8978 123.146 33.3473 123.146 32.1992C123.146 31.4128 122.667 30.9646 122.007 30.8231V30.7837C122.525 30.6107 122.832 30.0839 122.832 29.5334C122.832 28.4875 121.976 28.1022 120.79 28.1022H119V33.8978ZM119.911 30.5242V28.8178H120.712C121.528 28.8178 121.937 29.0459 121.937 29.6514C121.937 30.194 121.568 30.5242 120.688 30.5242H119.911ZM119.911 33.1822V31.2084H120.829C121.748 31.2084 122.251 31.4993 122.251 32.152C122.251 32.8598 121.732 33.1822 120.829 33.1822H119.911Z" fill="#181818"/>
<path d="M124.237 33.8978H127.739V33.1271H125.148V31.2556H127.268V30.4849H125.148V28.8729H127.653V28.1022H124.237V33.8978Z" fill="#181818"/>
<path d="M128.945 33.8978H129.809V31.1691C129.809 30.54 129.738 29.8716 129.691 29.2739H129.73L130.335 30.4849L132.251 33.8978H133.185V28.1022H132.321V30.8073C132.321 31.4364 132.392 32.1363 132.439 32.7339H132.4L131.795 31.5072L129.879 28.1022H128.945V33.8978Z" fill="#181818"/>
<path d="M135.889 33.8978H136.8V28.8729H138.504V28.1022H134.193V28.8729H135.889V33.8978Z" fill="#181818"/>
<path d="M141.48 34C142.964 34 144 32.844 144 30.9803C144 29.1166 142.964 28 141.48 28C139.996 28 138.967 29.1166 138.967 30.9803C138.967 32.844 139.996 34 141.48 34ZM141.48 33.2058C140.522 33.2058 139.901 32.3329 139.901 30.9803C139.901 29.6199 140.522 28.7942 141.48 28.7942C142.438 28.7942 143.066 29.6199 143.066 30.9803C143.066 32.3329 142.438 33.2058 141.48 33.2058Z" fill="#181818"/>
</svg>
